<svg width="162" height="31" viewBox="0 0 162 31" fill="none" xmlns="http://www.w3.org/2000/svg">
<g clip-path="url(#clip0_3749_4090)">
<path d="M34.207 22.5851V8.90088H41.6525C43 8.90088 44.0405 9.20724 44.7739 9.82848C45.5074 10.4497 45.8826 11.3007 45.8826 12.3985C45.8826 13.2155 45.6097 13.9303 45.0639 14.5261C44.5181 15.1218 43.7761 15.4877 42.8465 15.5983V15.6579C43.9296 15.7004 44.808 16.0068 45.4733 16.577C46.1385 17.1472 46.4711 17.8705 46.4711 18.7471C46.4711 19.93 46.0958 20.8661 45.3539 21.5554C44.6119 22.2362 43.6055 22.5851 42.3347 22.5851H34.207V22.5851ZM36.9532 14.5516H41.3625C41.8827 14.5516 42.3006 14.3984 42.6077 14.1005C42.9147 13.8027 43.0682 13.3942 43.0682 12.8666C43.0682 12.339 42.9062 11.99 42.5906 11.7347C42.2665 11.4709 41.8316 11.3433 41.2687 11.3433H36.9618V14.5516H36.9532ZM41.6354 20.1427C42.9147 20.1427 43.5543 19.564 43.5543 18.4067C43.5543 17.8961 43.3752 17.5046 43.0085 17.2323C42.6418 16.9599 42.1471 16.8238 41.516 16.8238H36.9532V20.1512H41.6354V20.1427Z" fill="white"/>
<path d="M48.6465 22.5851V8.90088H51.5035V22.5851H48.6465Z" fill="white"/>
<path d="M56.5006 17.6917C56.6455 18.6534 57.0379 19.3512 57.6775 19.7767C58.3171 20.2022 59.2212 20.415 60.3981 20.415C62.4791 20.415 63.511 19.8788 63.511 18.8151C63.494 18.347 63.3149 17.9981 62.9567 17.7768C62.5985 17.5556 61.9418 17.3684 60.9866 17.2067L58.0442 16.7216C56.8332 16.5259 55.8694 16.0918 55.153 15.411C54.4452 14.7302 54.0699 13.8452 54.0443 12.7559V12.7133C54.0443 11.4453 54.5731 10.4667 55.6392 9.76033C56.7052 9.05399 58.0613 8.70508 59.7073 8.70508C63.4684 8.70508 65.5067 10.0837 65.8223 12.8495L63.2381 13.5729C63.1699 12.6367 62.8629 11.99 62.3085 11.6411C61.7542 11.2921 60.9013 11.1134 59.7499 11.1134C58.7947 11.1134 58.0783 11.2411 57.5837 11.5049C57.0976 11.7687 56.8502 12.1432 56.8502 12.6367V12.6793C56.8673 13.1644 57.0549 13.5133 57.4302 13.726C57.8054 13.9388 58.4792 14.126 59.46 14.2792L62.1038 14.7132C63.3831 14.9089 64.398 15.3259 65.14 15.9727C65.882 16.6195 66.2658 17.445 66.2743 18.4662V18.5087C66.2743 19.8618 65.7285 20.9171 64.6453 21.666C63.5622 22.4148 62.1379 22.7893 60.3725 22.7893C58.4621 22.7893 56.944 22.4234 55.8012 21.6915C54.6584 20.9596 53.9676 19.8703 53.7373 18.4066L56.5006 17.7003V17.6917Z" fill="white"/>
<path d="M69.7285 10.5775C71.1784 9.32652 73.0887 8.69678 75.4512 8.69678C77.8136 8.69678 79.7325 9.32652 81.1738 10.5945C82.6066 11.8625 83.3315 13.5816 83.3315 15.7516C83.3315 17.9217 82.6066 19.6408 81.1653 20.8917C79.724 22.1427 77.8221 22.7725 75.4512 22.7725C73.0802 22.7725 71.1613 22.1427 69.72 20.8832C68.2786 19.6237 67.5537 17.9132 67.5537 15.7516C67.5537 13.5901 68.2786 11.837 69.7285 10.569V10.5775ZM71.6304 19.2408C72.415 19.9046 73.6857 20.2365 75.4512 20.2365C77.2166 20.2365 78.402 19.8705 79.2123 19.1472C80.0225 18.4238 80.4233 17.2835 80.4233 15.7346C80.4233 14.0922 80.0225 12.9263 79.2293 12.2455C78.4362 11.5647 77.1739 11.2158 75.4512 11.2158C73.7284 11.2158 72.4235 11.5562 71.6304 12.2455C70.8372 12.9263 70.4364 14.0922 70.4364 15.7346C70.4364 17.3771 70.8372 18.5855 71.6304 19.2323V19.2408Z" fill="white"/>
<path d="M89.302 8.90088L95.1185 16.7557L96.7218 18.8492H96.7815L96.7645 16.7727V8.90088H99.5277V22.5851H95.9798L89.9672 14.4154L88.4235 12.339H88.3638V22.5851H85.6006V8.90088H89.302V8.90088Z" fill="white"/>
<path d="M114.802 8.90088V10.3646H106.964V14.7814H114.171V16.2111H106.964V22.5851H105.378V8.90088H114.802Z" fill="white"/>
<path d="M117.155 17.3854V8.90088H118.742V17.4791C118.742 18.8492 119.108 19.8278 119.85 20.4236C120.592 21.0193 121.786 21.3171 123.449 21.3171C125.112 21.3171 126.349 21.0193 127.083 20.4236C127.824 19.8278 128.191 18.8492 128.191 17.4791V8.90088H129.76V17.3854C129.76 20.9852 127.654 22.7809 123.449 22.7809C119.245 22.7809 117.164 20.9852 117.164 17.3854H117.155Z" fill="white"/>
<path d="M134.512 8.90109L141.488 17.4793L143.936 20.4323H143.979V17.4963L143.962 8.89258H145.548V22.5853H143.586L136.32 13.6157L134.086 10.901H134.043L134.06 13.5987V22.5938H132.474V8.90109H134.512V8.90109Z" fill="white"/>
<path d="M148.438 22.5851V8.90088H154.946C157.18 8.90088 158.912 9.5051 160.148 10.722C161.385 11.9305 161.999 13.607 161.999 15.743C161.999 17.879 161.376 19.5555 160.14 20.764C158.894 21.9724 157.172 22.5851 154.946 22.5851H148.438V22.5851ZM154.903 21.0959C158.545 21.0959 160.37 19.3087 160.37 15.743C160.37 12.1773 158.545 10.3646 154.903 10.3646H150.025V21.0959H154.903Z" fill="white"/>
<path d="M7.18958 22.1347L13.151 25.5728V30.7129L0 23.0283V11.6758L6.68639 15.6585V17.352L8.37505 18.152V19.8114H7.18958V22.1262V22.1347Z" fill="white"/>
<path d="M13.151 23.8787L9.31319 21.7087V19.9471H10.6522V17.6579L8.21301 16.543V14.8325L0.511719 10.4158L6.60964 6.77344L4.776 8.8499L13.151 13.3262" fill="white"/>
<path d="M13.1507 11.4541L7.05273 8.36494L13.1507 -0.000488281" fill="white"/>
<path d="M13.1504 30.7129L26.3355 23.0283V11.6758L19.6406 15.6585V17.352L17.952 18.152V19.8114H19.1374V22.1347L13.1504 25.5728V30.7129Z" fill="white"/>
<path d="M13.1504 23.8794L16.9627 21.7433V19.9903H15.6151V17.6925L18.0628 16.5777V14.8672L25.7641 10.4504L19.6662 6.80811L21.4998 8.88457L13.1504 13.3268V23.8794Z" fill="white"/>
<path d="M13.1504 0V11.4546L19.2483 8.36543L13.1504 0Z" fill="white"/>
</g>
<defs>
<clipPath id="clip0_3749_4090">
<rect width="162" height="30.7129" fill="white"/>
</clipPath>
</defs>
</svg>
