<svg width="129" height="24" viewBox="0 0 129 24" fill="none" xmlns="http://www.w3.org/2000/svg">
<path d="M0 13.7483V14.2452H3.23434C4.35989 14.2452 5.29051 14.106 6.12023 13.8298C6.94822 13.5548 7.6408 13.1539 8.3075 12.6689C8.90694 12.2336 9.50637 11.7129 10.1636 11.1411L10.3645 10.9668C11.1097 10.3208 11.9541 9.59662 13.0133 8.80286C14.056 8.02103 15.4981 7.61952 16.9988 7.61952H21.9935V0H18.7592C17.6336 0 16.703 0.139139 15.8733 0.415429C15.0453 0.690394 14.3527 1.09125 13.686 1.57558C13.0866 2.01155 12.4871 2.53233 11.8299 3.10413L11.629 3.27838C10.8838 3.92438 10.0394 4.64857 8.98025 5.44232C7.9375 6.22415 6.49541 6.62567 4.99468 6.62567H0V13.7483Z" fill="white"/>
<path d="M0 23.0373V23.5342H3.23434C4.35989 23.5342 5.29051 23.3951 6.12023 23.1188C6.94822 22.8439 7.6408 22.443 8.3075 21.958C8.90694 21.5227 9.50637 21.0019 10.1636 20.4301L10.3645 20.2559C11.1097 19.6099 11.9541 18.8857 13.0133 18.0919C14.056 17.3101 15.4981 16.9086 16.9988 16.9086H21.9935V9.28906H18.7592C17.6336 9.28906 16.703 9.4282 15.8733 9.70449C15.0453 9.97946 14.3527 10.3803 13.686 10.8646C13.0866 11.3006 12.4871 11.8214 11.8299 12.3932L11.629 12.5674C10.8838 13.2134 10.0394 13.9376 8.98025 14.7314C7.9375 15.5132 6.49541 15.9147 4.99468 15.9147H0V23.0373Z" fill="white"/>
<path fill-rule="evenodd" clip-rule="evenodd" d="M39.3016 7.92833L40.8586 6.37129L40.6262 6.1389C39.3926 4.90528 37.7329 4.21777 35.9861 4.21777C32.6803 4.21777 29.8799 6.68309 29.4752 9.96565C29.4422 10.2348 29.4248 10.5079 29.4248 10.779C29.4248 11.0501 29.4422 11.3232 29.4752 11.5924C29.8818 14.875 32.6822 17.3403 35.9861 17.3403C37.731 17.3403 39.3907 16.6528 40.6262 15.4192L40.8586 15.1868L39.3016 13.6278L39.0692 13.8602C38.25 14.6794 37.1481 15.1364 35.988 15.1364C33.8616 15.1364 32.0373 13.5968 31.6887 11.4975C31.65 11.2593 31.6287 11.0192 31.6287 10.779C31.6287 10.5389 31.648 10.2968 31.6887 10.0605C32.0373 7.96125 33.8616 6.42164 35.988 6.42164C37.1481 6.42164 38.25 6.8787 39.0692 7.69788L39.3016 7.93027V7.92833Z" fill="white"/>
<path fill-rule="evenodd" clip-rule="evenodd" d="M55.0206 4.3243H57.2245V6.52816H56.1225V17.2337H53.9187V15.6845C52.9562 16.5424 51.7361 17.1214 50.3746 17.2899C50.1055 17.3228 49.8324 17.3403 49.5613 17.3403C49.2901 17.3403 49.0171 17.3228 48.7479 17.2899C45.4653 16.8852 43 14.0848 43 10.779C43 7.47322 45.4653 4.67288 48.7479 4.26813C49.0171 4.2352 49.2882 4.21777 49.5613 4.21777C49.8343 4.21777 50.1055 4.2352 50.3746 4.26813C51.7361 4.43661 52.9562 5.0176 53.9187 5.87359V4.3243H55.0206ZM50.3359 6.48942C52.41 6.85931 53.9187 8.67392 53.9187 10.779C53.9187 12.8841 52.379 14.7297 50.2798 15.0783C50.0415 15.117 49.8014 15.1383 49.5613 15.1383C49.3211 15.1383 49.079 15.119 48.8428 15.0783L48.7827 15.0686C46.7106 14.6968 45.2039 12.8822 45.2039 10.781C45.2039 8.67973 46.7435 6.83028 48.8428 6.48169C49.081 6.44295 49.3211 6.42164 49.5613 6.42164C49.8014 6.42164 50.0435 6.44102 50.2798 6.48169L50.3359 6.49136V6.48942Z" fill="white"/>
<path fill-rule="evenodd" clip-rule="evenodd" d="M65.8781 4.38281C67.6307 4.38281 69.1955 5.22717 70.1851 6.52857C71.1748 5.22717 72.7396 4.38281 74.4922 4.38281C77.4668 4.38281 79.9012 6.81712 79.9012 9.79176V17.3407H77.6973V9.79176C77.6973 8.03331 76.2506 6.58668 74.4922 6.58668C72.7337 6.58668 71.2871 8.03331 71.2871 9.79176V17.3407H69.0832V9.79176C69.0832 8.03331 67.6366 6.58668 65.8781 6.58668C64.1197 6.58668 62.673 8.03331 62.673 9.79176V17.3407H60.4691V6.84812H59.3672V4.64425H62.673V5.44213C63.5716 4.77788 64.6813 4.38281 65.8781 4.38281Z" fill="white"/>
<path fill-rule="evenodd" clip-rule="evenodd" d="M94.0636 4.3243H96.2674V6.52816H95.1655V17.2337H92.9616V15.6845C91.9991 16.5424 90.7791 17.1214 89.4176 17.2899C89.1484 17.3228 88.8754 17.3403 88.6042 17.3403C88.3331 17.3403 88.06 17.3228 87.7909 17.2899C84.5083 16.8852 82.043 14.0848 82.043 10.779C82.043 7.47322 84.5083 4.67288 87.7909 4.26813C88.06 4.2352 88.3312 4.21777 88.6042 4.21777C88.8773 4.21777 89.1484 4.2352 89.4176 4.26813C90.7791 4.43661 91.9991 5.0176 92.9616 5.87359V4.3243H94.0636ZM89.3789 6.48942C91.453 6.85931 92.9616 8.67392 92.9616 10.779C92.9616 12.8841 91.422 14.7297 89.3227 15.0783C89.0845 15.117 88.8444 15.1383 88.6042 15.1383C88.3641 15.1383 88.122 15.119 87.8858 15.0783L87.8257 15.0686C85.7535 14.6968 84.2468 12.8822 84.2468 10.781C84.2468 8.67973 85.7865 6.83028 87.8858 6.48169C88.124 6.44295 88.3641 6.42164 88.6042 6.42164C88.8444 6.42164 89.0865 6.44102 89.3227 6.48169L89.3789 6.49136V6.48942Z" fill="white"/>
<path fill-rule="evenodd" clip-rule="evenodd" d="M104.157 4.2683C100.874 4.67305 98.4092 7.4734 98.4092 10.7792C98.4092 14.085 100.874 16.8853 104.157 17.2901C104.426 17.323 104.697 17.3404 104.97 17.3404C105.244 17.3404 105.515 17.323 105.784 17.2901C107.145 17.1216 108.365 16.5406 109.328 15.6846V17.2339H111.532V2.20387H112.634V0H109.328V5.87376C108.365 5.01584 107.145 4.43679 105.784 4.2683C105.515 4.23538 105.242 4.21795 104.97 4.21795C104.699 4.21795 104.426 4.23538 104.157 4.2683ZM105.745 6.48959C107.819 6.85948 109.328 8.6741 109.328 10.7792C109.328 12.8843 107.788 14.7299 105.689 15.0785C105.451 15.1172 105.211 15.1385 104.97 15.1385C104.73 15.1385 104.488 15.1191 104.252 15.0785L104.192 15.0688C102.12 14.697 100.613 12.8824 100.613 10.7811C100.613 8.67991 102.153 6.83045 104.252 6.48186C104.49 6.44313 104.73 6.42181 104.97 6.42181C105.211 6.42181 105.453 6.44119 105.689 6.48186L105.745 6.49153V6.48959Z" fill="white"/>
<path fill-rule="evenodd" clip-rule="evenodd" d="M126.796 4.3243H129V6.52816H127.898V17.2337H125.694V15.6845C124.732 16.5424 123.511 17.1214 122.15 17.2899C121.881 17.3228 121.608 17.3403 121.337 17.3403C121.066 17.3403 120.792 17.3228 120.523 17.2899C117.241 16.8852 114.775 14.0848 114.775 10.779C114.775 7.47322 117.241 4.67288 120.523 4.26813C120.792 4.2352 121.064 4.21777 121.337 4.21777C121.61 4.21777 121.881 4.2352 122.15 4.26813C123.511 4.43661 124.732 5.0176 125.694 5.87359V4.3243H126.796ZM122.111 6.48942C124.185 6.85931 125.694 8.67392 125.694 10.779C125.694 12.8841 124.154 14.7297 122.055 15.0783C121.817 15.117 121.577 15.1383 121.337 15.1383C121.097 15.1383 120.854 15.119 120.618 15.0783L120.558 15.0686C118.486 14.6968 116.979 12.8822 116.979 10.781C116.979 8.67973 118.519 6.83028 120.618 6.48169C120.856 6.44295 121.097 6.42164 121.337 6.42164C121.577 6.42164 121.819 6.44102 122.055 6.48169L122.111 6.49136V6.48942Z" fill="white"/>
</svg>
