<svg width="118" height="23" viewBox="0 0 118 23" fill="none" xmlns="http://www.w3.org/2000/svg">
<path d="M26.0732 19.793V5.77689H31.7462C32.9675 5.77689 34.0115 5.97712 34.8782 6.37758C35.758 6.77804 36.4343 7.35203 36.9071 8.09955C37.3798 8.84708 37.6162 9.73476 37.6162 10.7626C37.6162 11.7905 37.3798 12.6781 36.9071 13.4257C36.4343 14.1732 35.758 14.7472 34.8782 15.1476C34.0115 15.5481 32.9675 15.7483 31.7462 15.7483H27.4915L28.634 14.5269V19.793H26.0732ZM28.634 14.8073L27.4915 13.5458H31.628C32.7574 13.5458 33.6044 13.3055 34.1691 12.825C34.7469 12.3311 35.0358 11.6436 35.0358 10.7626C35.0358 9.86825 34.7469 9.1808 34.1691 8.70024C33.6044 8.21969 32.7574 7.97942 31.628 7.97942H27.4915L28.634 6.69795V14.8073ZM37.5308 19.793L43.7357 5.77689H46.257L52.4815 19.793H49.8026L44.4645 7.15848H45.4888L40.1704 19.793H37.5308ZM40.387 16.5492L41.0765 14.5069H48.5223L49.2117 16.5492H40.387ZM60.4249 19.9932C59.3743 19.9932 58.396 19.8197 57.4899 19.4726C56.5969 19.1122 55.8156 18.6116 55.1459 17.9709C54.4893 17.3168 53.9771 16.5492 53.6094 15.6682C53.2417 14.7872 53.0579 13.8261 53.0579 12.7849C53.0579 11.7437 53.2417 10.7826 53.6094 9.90162C53.9771 9.02061 54.4958 8.25974 55.1656 7.619C55.8353 6.96492 56.6166 6.46435 57.5096 6.11728C58.4026 5.75687 59.3809 5.57666 60.4446 5.57666C61.5739 5.57666 62.6048 5.77689 63.5372 6.17735C64.4695 6.56446 65.2574 7.14513 65.9009 7.91935L64.2463 9.50116C63.7473 8.95387 63.1892 8.54673 62.572 8.27976C61.9548 7.99944 61.285 7.85928 60.5628 7.85928C59.8405 7.85928 59.1774 7.97942 58.5733 8.21969C57.9824 8.45997 57.4636 8.80036 57.0172 9.24086C56.5838 9.68137 56.2424 10.202 55.9929 10.8027C55.7565 11.4033 55.6383 12.0641 55.6383 12.7849C55.6383 13.5058 55.7565 14.1665 55.9929 14.7672C56.2424 15.3679 56.5838 15.8885 57.0172 16.329C57.4636 16.7695 57.9824 17.1099 58.5733 17.3502C59.1774 17.5904 59.8405 17.7106 60.5628 17.7106C61.285 17.7106 61.9548 17.5771 62.572 17.3101C63.1892 17.0298 63.7473 16.6093 64.2463 16.0487L65.9009 17.6505C65.2574 18.4114 64.4695 18.9921 63.5372 19.3925C62.6048 19.793 61.5674 19.9932 60.4249 19.9932ZM78.0459 5.77689H80.6066V19.793H78.0459V5.77689ZM70.9152 19.793H68.3545V5.77689H70.9152V19.793ZM78.2428 13.7861H70.6986V11.5635H78.2428V13.7861ZM84.3012 19.793V5.77689H86.8619V19.793H84.3012ZM90.5916 19.793V5.77689H96.2646C97.4858 5.77689 98.5298 5.97712 99.3965 6.37758C100.276 6.77804 100.953 7.35203 101.425 8.09955C101.898 8.84708 102.135 9.73476 102.135 10.7626C102.135 11.7905 101.898 12.6781 101.425 13.4257C100.953 14.1598 100.276 14.7272 99.3965 15.1276C98.5298 15.5147 97.4858 15.7083 96.2646 15.7083H92.0098L93.1523 14.5269V19.793H90.5916ZM99.6132 19.793L96.1267 14.7071H98.8645L102.371 19.793H99.6132ZM93.1523 14.8073L92.0098 13.5658H96.1464C97.2757 13.5658 98.1227 13.3189 98.6872 12.825C99.2652 12.3311 99.5541 11.6436 99.5541 10.7626C99.5541 9.86825 99.2652 9.1808 98.6872 8.70024C98.1227 8.21969 97.2757 7.97942 96.1464 7.97942H92.0098L93.1523 6.69795V14.8073ZM103.049 19.793L109.254 5.77689H111.775L118 19.793H115.321L109.983 7.15848H111.007L105.689 19.793H103.049ZM105.905 16.5492L106.595 14.5069H114.041L114.73 16.5492H105.905Z" fill="white"/>
<path fill-rule="evenodd" clip-rule="evenodd" d="M7.25465 7.38645C10.4873 5.16349 13.8221 2.87031 14.962 0C23.1745 14.8703 10.6875 28.5132 2.33936 20.0272C-3.09485 14.5034 1.94201 11.0397 7.25465 7.38645ZM5.39661 17.4873C9.98476 15.2219 12.8022 11.9564 12.8574 7.6153C15.8262 12.6318 10.5845 18.7633 5.39661 17.4873Z" fill="white"/>
</svg>
