<svg width="100" height="30" viewBox="0 0 100 30" fill="none" xmlns="http://www.w3.org/2000/svg">
<g clip-path="url(#clip0_3749_4033)">
<path d="M43.3365 20.0991V16.4417C43.3365 15.744 43.1644 15.5362 42.5539 15.5362H38.8908V20.0979H37.002V9.16357H42.573C44.137 9.16357 45.2815 10.2379 45.2815 11.7089V12.8965C45.2815 13.8197 44.8622 14.3297 44.5372 14.6118C44.8801 14.8574 45.2815 15.3473 45.2815 16.195V20.0967H43.3353L43.3365 20.0991ZM43.3365 11.5778C43.3365 11.1823 42.9936 10.8234 42.6686 10.8234H38.8908V13.7264H42.4583C43.1644 13.7264 43.3353 13.5375 43.3353 12.8776V11.5766L43.3365 11.5778Z" fill="white"/>
<path d="M53.9056 20.0989H50.5854C49.0215 20.0989 47.877 19.0246 47.877 17.5536V11.7098C47.877 10.2389 49.0215 9.16455 50.5854 9.16455H53.9056C55.4695 9.16455 56.6141 10.2389 56.6141 11.7098V17.5536C56.6141 19.0246 55.4695 20.0989 53.9056 20.0989ZM54.7073 11.6154C54.7073 11.2388 54.3835 10.9177 54.0394 10.9177H50.4528C50.1099 10.9177 49.785 11.2376 49.785 11.6154V17.648C49.785 18.0246 50.1087 18.3457 50.4528 18.3457H54.0394C54.3823 18.3457 54.7073 18.0258 54.7073 17.648V11.6154Z" fill="white"/>
<path d="M59.209 20.0989V9.16455H61.1935V18.3457H66.154V20.0989H59.2102H59.209Z" fill="white"/>
<path d="M68.3662 20.0989V9.16455H70.3507V18.3457H75.3113V20.0989H68.3674H68.3662Z" fill="white"/>
<path d="M83.1717 20.0989H80.2339C78.67 20.0989 77.5254 19.0246 77.5254 17.5536V9.16455H79.5099V17.648C79.5099 18.0246 79.8336 18.3457 80.1777 18.3457H83.2303C83.5744 18.3457 83.8981 18.0258 83.8981 17.648V9.16455H85.8826V17.5536C85.8826 19.0246 84.7381 20.0989 83.1741 20.0989H83.1717Z" fill="white"/>
<path d="M95.8378 13.4818L94.3312 14.7261L95.876 15.8382C96.5439 16.3282 96.7542 16.7992 96.7542 17.7425V20.0989H94.7888V17.8936C94.7888 17.3281 94.7697 17.2714 94.4459 17.0448L92.4615 15.6305L90.7637 17.0448C90.4591 17.2903 90.4209 17.3647 90.4209 17.9691V20.0989H88.4746V17.8936C88.4746 16.9515 88.6084 16.4604 89.3336 15.8571L90.9167 14.5561L89.3719 13.4252C88.7996 13.0297 88.4758 12.5586 88.4758 11.5776V9.16455H90.422V11.5209C90.422 11.8975 90.4412 11.9731 90.6897 12.162L92.7888 13.6518L94.4483 12.2375C94.7339 11.992 94.8103 11.8609 94.8103 11.5209V9.16455H96.7757V11.6343C96.7757 12.5952 96.4137 13.0108 95.8402 13.4818H95.8378Z" fill="white"/>
<path fill-rule="evenodd" clip-rule="evenodd" d="M17.2044 30.051C25.6167 30.051 32.4362 23.3125 32.4362 15.0001C32.4362 6.68774 25.6167 -0.0507812 17.2044 -0.0507812C8.79216 -0.0507812 1.97266 6.68774 1.97266 15.0001C1.97266 23.3125 8.79216 30.051 17.2044 30.051ZM10.4766 7.22852H11.1062L26.2065 20.9064V22.7717H10.4766V7.22852ZM23.0612 13.4453C23.0612 14.4559 22.8175 15.4098 22.385 16.2527L13.4531 8.16234C14.4161 7.57088 15.5523 7.22852 16.7697 7.22852C20.244 7.22852 23.0612 10.0111 23.0612 13.4453Z" fill="white"/>
</g>
<defs>
<clipPath id="clip0_3749_4033">
<rect width="100" height="30" fill="white"/>
</clipPath>
</defs>
</svg>
