<svg width="151" height="33" viewBox="0 0 151 33" fill="none" xmlns="http://www.w3.org/2000/svg">
<g clip-path="url(#clip0_3749_4089)">
<path d="M19.2583 32.8077H13.5147C11.4935 32.8047 9.556 31.9997 8.12781 30.5694C6.69963 29.1391 5.89746 27.2004 5.89746 25.1791H9.18209C9.18269 26.3287 9.63914 27.431 10.4513 28.2445C11.2635 29.058 12.3652 29.5162 13.5147 29.5186H19.2583C20.1483 29.5156 21.0159 29.2392 21.7436 28.7268C22.4713 28.2144 23.024 27.4907 23.3267 26.6538C23.6294 25.8168 23.6677 24.907 23.4362 24.0477C23.2047 23.1883 22.7147 22.4208 22.0325 21.8491L8.91442 13.6829C8.85917 13.6485 8.80613 13.6106 8.75563 13.5695C7.52538 12.582 6.63178 11.2371 6.19802 9.72029C5.76426 8.20351 5.81171 6.58952 6.33382 5.10083C6.85593 3.61215 7.82699 2.32208 9.11313 1.4085C10.3993 0.494913 11.9371 0.00279802 13.5147 0L19.2583 0C21.2786 0.00360258 23.215 0.808223 24.6429 2.23743C26.0709 3.66663 26.8737 5.60377 26.8755 7.62406H23.5909C23.5903 6.47454 23.1339 5.37216 22.3217 4.55869C21.5095 3.74521 20.4078 3.28703 19.2583 3.28463H13.5147C12.624 3.28656 11.7554 3.56242 11.0268 4.07478C10.2981 4.58714 9.74472 5.31121 9.44159 6.14878C9.13845 6.98635 9.10027 7.89689 9.33222 8.7569C9.56417 9.61691 10.055 10.3848 10.7382 10.9563L23.8586 19.1225C23.9135 19.1575 23.9665 19.1954 24.0174 19.236C25.2506 20.223 26.1468 21.5688 26.5821 23.0873C27.0174 24.6057 26.9703 26.2219 26.4473 27.7124C25.9243 29.203 24.9512 30.4943 23.6626 31.4078C22.374 32.3214 20.8334 32.8122 19.2537 32.8123L19.2583 32.8077Z" fill="white"/>
<path d="M25.1565 26.9028V23.6181C26.3056 23.6157 27.4069 23.1579 28.219 22.3449C29.0312 21.5319 29.4879 20.4301 29.4891 19.281V13.5283C29.4912 12.6374 29.2184 11.7675 28.708 11.0373C28.1975 10.3071 27.4743 9.75206 26.6369 9.44795C25.7994 9.14384 24.8886 9.10543 24.0286 9.33796C23.1685 9.57048 22.4011 10.0626 21.831 10.7473L13.6784 23.8813C13.6434 23.9362 13.6056 23.9892 13.565 24.0401C12.5795 25.2738 11.2349 26.1707 9.71728 26.6067C8.19963 27.0426 6.584 26.996 5.09402 26.4732C3.60405 25.9505 2.31341 24.9775 1.40077 23.6889C0.488133 22.4004 -0.00137583 20.86 2.90447e-06 19.281V13.5283C-3.10888e-07 11.5069 0.802095 9.56797 2.23022 8.1373C3.65834 6.70662 5.59579 5.90107 7.61726 5.89746V9.1889C6.46774 9.1913 5.36608 9.64948 4.55388 10.463C3.74168 11.2764 3.28523 12.3788 3.28463 13.5283V19.281C3.28302 20.1717 3.55614 21.0413 4.06674 21.7711C4.57735 22.501 5.3006 23.0556 6.13792 23.3595C6.97524 23.6633 7.88588 23.7015 8.74572 23.4689C9.60556 23.2363 10.3727 22.7443 10.9427 22.0597L19.0953 8.92576C19.129 8.87054 19.1661 8.81751 19.2065 8.76698C20.1926 7.53334 21.5377 6.63671 23.0558 6.20117C24.5739 5.76563 26.1898 5.81272 27.6799 6.33593C29.1701 6.85913 30.4608 7.83258 31.3733 9.12155C32.2859 10.4105 32.7753 11.9513 32.7737 13.5306V19.281C32.7713 21.3009 31.9682 23.2374 30.5403 24.6661C29.1124 26.0949 27.1764 26.8992 25.1565 26.9028Z" fill="white"/>
<path d="M49.8623 24.5957C48.5629 24.6281 47.269 24.4142 46.0492 23.9651C45.0734 23.6036 44.2351 22.9461 43.6515 22.0846C43.1055 21.2513 42.8318 20.2162 42.8303 18.9792V18.8272H46.1603V19.2559C46.1408 19.6737 46.2449 20.088 46.4597 20.4468C46.6594 20.7485 47.0246 20.9685 47.5576 21.1137C48.3152 21.2779 49.0898 21.3495 49.8646 21.3269C50.5485 21.3434 51.2324 21.2917 51.9061 21.1727C52.2771 21.123 52.621 20.9515 52.8838 20.685C53.0687 20.4384 53.1625 20.1354 53.1492 19.8275C53.1668 19.6256 53.1347 19.4224 53.0556 19.2358C52.9765 19.0491 52.8529 18.8847 52.6955 18.7569C52.3916 18.53 51.863 18.3508 51.1077 18.2102L46.9338 17.575C46.1379 17.4468 45.3704 17.1812 44.6654 16.7902C44.0568 16.4444 43.5547 15.9384 43.2137 15.3271C42.8554 14.6414 42.6796 13.875 42.7033 13.1018C42.7046 12.4883 42.8288 11.8813 43.0685 11.3165C43.3289 10.7041 43.7281 10.1605 44.2344 9.72866C44.8497 9.21343 45.5626 8.82766 46.3304 8.59447C47.36 8.28596 48.4317 8.14128 49.5062 8.16574C51.0275 8.16574 52.2812 8.40014 53.2672 8.86894C54.1904 9.28213 54.9618 9.97273 55.4743 10.8447C55.9747 11.7416 56.2276 12.7554 56.207 13.7823V13.9252H52.8543V13.6099C52.8731 13.1778 52.7693 12.7492 52.5549 12.3736C52.2887 12.0113 51.8974 11.7607 51.457 11.6704C50.7078 11.4966 49.9392 11.4204 49.1705 11.4436C48.5409 11.427 47.9115 11.4825 47.2945 11.6092C46.93 11.6741 46.5939 11.8481 46.3304 12.1082C46.1357 12.3478 46.0357 12.6504 46.0492 12.9589C46.0392 13.2198 46.1004 13.4786 46.2261 13.7074C46.3591 13.9133 46.5535 14.072 46.7818 14.1611C47.1029 14.2931 47.4377 14.389 47.7799 14.4469L51.947 15.1728C52.8852 15.3024 53.7878 15.6195 54.601 16.1051C55.2108 16.4823 55.7052 17.0198 56.0301 17.659C56.3329 18.2862 56.488 18.9745 56.4838 19.671C56.4929 20.5751 56.2318 21.4612 55.7339 22.2158C55.2359 22.9704 54.5239 23.559 53.6891 23.9061C52.7061 24.3673 51.4305 24.5972 49.8623 24.5957Z" fill="white"/>
<path d="M64.3816 24.5954C63.2583 24.6174 62.1441 24.3897 61.1196 23.9285C60.1879 23.5008 59.4181 22.7851 58.9238 21.8869C58.4051 20.969 58.1458 19.8113 58.1458 18.414C58.1161 17.2659 58.3842 16.1296 58.9238 15.1158C59.4236 14.2061 60.1739 13.459 61.0856 12.9631C62.0799 12.438 63.1917 12.1757 64.3158 12.2009C65.4114 12.1775 66.4979 12.4056 67.4916 12.8678C68.381 13.2921 69.12 13.9774 69.6102 14.8322C70.1389 15.797 70.3997 16.8857 70.3656 17.9853C70.3656 18.1917 70.3656 18.38 70.3429 18.5546C70.3202 18.7293 70.3066 18.9199 70.2771 19.1263H60.2962V17.239H67.9294L67.174 18.4049V17.5271C67.174 16.6197 66.9471 15.9694 66.4935 15.5762C66.0398 15.1831 65.2927 14.9849 64.2523 14.9819C63.1272 14.9819 62.3431 15.2156 61.9 15.6829C61.4569 16.1501 61.2338 16.8957 61.2308 17.9195V18.8268C61.2308 19.8401 61.4523 20.5818 61.8954 21.0521C62.3385 21.5225 63.1302 21.7561 64.2704 21.7531C65.2474 21.7531 65.9354 21.6185 66.3347 21.3493C66.5274 21.2239 66.684 21.0504 66.789 20.8459C66.8941 20.6414 66.9439 20.413 66.9335 20.1833V19.9565H70.2613V20.1879C70.2738 21.009 70.0163 21.8115 69.5286 22.4722C69.0025 23.1683 68.2967 23.7078 67.487 24.0328C66.5001 24.4268 65.444 24.6181 64.3816 24.5954Z" fill="white"/>
<path d="M75.3739 24.3576H72.0439V8.41309H75.3739V24.3576Z" fill="white"/>
<path d="M85.3881 15.3862H77.0449V12.4373H85.3881V15.3862ZM81.9469 24.3577H78.6192V13.2425C78.6 12.3608 78.827 11.4912 79.2748 10.7314C79.7417 9.98234 80.4218 9.38989 81.2278 9.03014C82.2273 8.59044 83.3121 8.3789 84.4036 8.41087H85.3813V11.0082H83.8728C83.0138 11.0082 82.4218 11.1465 82.0966 11.4233C81.77 11.7023 81.7201 12.2853 81.9401 13.1722V24.3577H81.9469Z" fill="white"/>
<path d="M98.2206 24.5961C97.0718 24.622 95.9348 24.36 94.9133 23.8339C93.9884 23.348 93.2282 22.5989 92.7288 21.6812C92.199 20.6739 91.9351 19.548 91.9621 18.4102C91.9332 17.2635 92.1971 16.1283 92.7288 15.1119C93.2289 14.1947 93.9889 13.4458 94.9133 12.9592C95.9348 12.4332 97.0718 12.1711 98.2206 12.1971C99.3058 12.1735 100.383 12.3937 101.371 12.8413C102.228 13.231 102.958 13.8535 103.479 14.6379C103.993 15.4428 104.256 16.3825 104.234 17.3372V17.6707H100.92V17.4801C100.92 16.724 100.676 16.1887 100.187 15.8741C99.6988 15.5596 99.0183 15.4084 98.1457 15.4205C97.1537 15.4205 96.4255 15.642 95.9613 16.0851C95.497 16.5282 95.2671 17.3032 95.2717 18.4102C95.2717 19.4884 95.5046 20.2536 95.9703 20.7058C96.4361 21.158 97.1643 21.3848 98.1548 21.3863C99.0274 21.3863 99.7079 21.2351 100.196 20.9326C100.685 20.6302 100.929 20.0948 100.929 19.3266V19.1225H104.236V19.4559C104.258 20.4115 103.995 21.3519 103.481 22.1576C102.96 22.9413 102.23 23.5636 101.374 23.9541C100.384 24.4013 99.3064 24.6207 98.2206 24.5961Z" fill="white"/>
<path d="M109.314 24.3576H105.986V8.41309H109.314V24.3576ZM118.456 24.3576H115.128V18.1241C115.128 17.123 114.909 16.4205 114.472 16.0167C114.035 15.613 113.292 15.4111 112.243 15.4111C111.64 15.3836 111.039 15.4978 110.489 15.7445C110.076 15.951 109.753 16.3022 109.582 16.7313C109.389 17.2606 109.299 17.8219 109.316 18.3849H108.829L108.872 16.0757H109.493C109.604 15.4057 109.835 14.7611 110.174 14.1725C110.522 13.5762 111.023 13.0837 111.626 12.7457C112.351 12.3567 113.167 12.1672 113.989 12.1968C114.866 12.1641 115.733 12.388 116.484 12.841C117.141 13.2597 117.659 13.8646 117.97 14.5786C118.305 15.3591 118.472 16.2018 118.458 17.0511L118.456 24.3576Z" fill="white"/>
<path d="M124.054 24.5958C122.855 24.5958 121.915 24.3107 121.234 23.7406C120.71 23.2574 120.364 22.6118 120.251 21.9077C120.138 21.2037 120.266 20.4822 120.613 19.8594C120.907 19.409 121.323 19.0512 121.813 18.8273C122.444 18.5387 123.118 18.3577 123.809 18.2919L128.799 17.7453V19.7868L124.716 20.2859C124.407 20.2903 124.105 20.3764 123.841 20.5354C123.746 20.6094 123.671 20.7057 123.622 20.8157C123.573 20.9257 123.553 21.046 123.562 21.166C123.552 21.3029 123.58 21.44 123.642 21.562C123.705 21.6841 123.801 21.7865 123.918 21.8579C124.255 22.0224 124.63 22.0959 125.004 22.0711C125.67 22.0915 126.336 22.0151 126.98 21.8442C127.448 21.7159 127.863 21.4418 128.164 21.0617C128.457 20.6411 128.601 20.1352 128.575 19.6235L128.886 19.5985V21.6219H128.575C128.347 22.5071 127.807 23.2803 127.055 23.7996C126.296 24.3304 125.295 24.5958 124.054 24.5958ZM131.864 24.3576H128.756V21.5267L128.579 21.479V17.3143C128.579 16.537 128.398 16.0137 128.035 15.7445C127.672 15.4754 127.047 15.34 126.161 15.3385C125.317 15.3385 124.709 15.4746 124.347 15.7445C123.984 16.0145 123.791 16.4886 123.791 17.1714V17.2666H120.436V17.194C120.419 16.2729 120.674 15.3671 121.168 14.5899C121.679 13.8179 122.398 13.2066 123.242 12.8274C124.237 12.3871 125.316 12.1718 126.404 12.1968C127.647 12.1968 128.672 12.4115 129.478 12.841C130.251 13.2355 130.88 13.8643 131.274 14.6376C131.684 15.4851 131.887 16.4183 131.864 17.3596V24.3576Z" fill="white"/>
<path d="M136.949 11.2214H133.621V8.41309H136.949V11.2214ZM136.949 24.3576H133.621V12.4349H136.949V24.3576Z" fill="white"/>
<path d="M142.037 24.3577H138.707V12.435H141.792V16.1483L142.037 16.2663V24.3577ZM150.999 24.3577H147.672V18.1241C147.672 17.1548 147.465 16.4606 147.05 16.0417C146.636 15.6228 145.918 15.4126 144.897 15.4111C143.839 15.4111 143.096 15.6448 142.668 16.112C142.24 16.5793 142.029 17.3211 142.037 18.3373H141.615L141.37 16.1052H142.001C142.104 15.4391 142.329 14.7978 142.665 14.2134C143.014 13.6102 143.516 13.1095 144.119 12.7616C144.858 12.362 145.69 12.1685 146.528 12.2013C147.406 12.168 148.274 12.3852 149.033 12.8274C149.686 13.2349 150.203 13.827 150.519 14.5287C150.853 15.2854 151.02 16.1059 151.006 16.9332L150.999 24.3577Z" fill="white"/>
<path d="M19.2583 32.8077H13.5147C11.4935 32.8047 9.556 31.9997 8.12781 30.5694C6.69963 29.1391 5.89746 27.2004 5.89746 25.1791H9.18209C9.18269 26.3287 9.63914 27.431 10.4513 28.2445C11.2635 29.058 12.3652 29.5162 13.5147 29.5186H19.2583C20.1483 29.5156 21.0159 29.2392 21.7436 28.7268C22.4713 28.2144 23.024 27.4907 23.3267 26.6538C23.6294 25.8168 23.6677 24.907 23.4362 24.0477C23.2047 23.1883 22.7147 22.4208 22.0325 21.8491L8.91442 13.6829C8.85917 13.6485 8.80613 13.6106 8.75563 13.5695C7.52538 12.582 6.63178 11.2371 6.19802 9.72029C5.76426 8.20351 5.81171 6.58952 6.33382 5.10083C6.85593 3.61215 7.82699 2.32208 9.11313 1.4085C10.3993 0.494913 11.9371 0.00279802 13.5147 0L19.2583 0C21.2786 0.00360258 23.215 0.808223 24.6429 2.23743C26.0709 3.66663 26.8737 5.60377 26.8755 7.62406H23.5909C23.5903 6.47454 23.1339 5.37216 22.3217 4.55869C21.5095 3.74521 20.4078 3.28703 19.2583 3.28463H13.5147C12.624 3.28656 11.7554 3.56242 11.0268 4.07478C10.2981 4.58714 9.74472 5.31121 9.44159 6.14878C9.13845 6.98635 9.10027 7.89689 9.33222 8.7569C9.56417 9.61691 10.055 10.3848 10.7382 10.9563L23.8586 19.1225C23.9135 19.1575 23.9665 19.1954 24.0174 19.236C25.2506 20.223 26.1468 21.5688 26.5821 23.0873C27.0174 24.6057 26.9703 26.2219 26.4473 27.7124C25.9243 29.203 24.9512 30.4943 23.6626 31.4078C22.374 32.3214 20.8334 32.8122 19.2537 32.8123L19.2583 32.8077Z" fill="white"/>
<path d="M25.1565 26.9028V23.6181C26.3056 23.6157 27.4069 23.1579 28.219 22.3449C29.0312 21.5319 29.4879 20.4301 29.4891 19.281V13.5283C29.4912 12.6374 29.2184 11.7675 28.708 11.0373C28.1975 10.3071 27.4743 9.75206 26.6369 9.44795C25.7994 9.14384 24.8886 9.10543 24.0286 9.33796C23.1685 9.57048 22.4011 10.0626 21.831 10.7473L13.6784 23.8813C13.6434 23.9362 13.6056 23.9892 13.565 24.0401C12.5795 25.2738 11.2349 26.1707 9.71728 26.6067C8.19963 27.0426 6.584 26.996 5.09402 26.4732C3.60405 25.9505 2.31341 24.9775 1.40077 23.6889C0.488133 22.4004 -0.00137583 20.86 2.90447e-06 19.281V13.5283C-3.10888e-07 11.5069 0.802095 9.56797 2.23022 8.1373C3.65834 6.70662 5.59579 5.90107 7.61726 5.89746V9.1889C6.46774 9.1913 5.36608 9.64948 4.55388 10.463C3.74168 11.2764 3.28523 12.3788 3.28463 13.5283V19.281C3.28302 20.1717 3.55614 21.0413 4.06674 21.7711C4.57735 22.501 5.3006 23.0556 6.13792 23.3595C6.97524 23.6633 7.88588 23.7015 8.74572 23.4689C9.60556 23.2363 10.3727 22.7443 10.9427 22.0597L19.0953 8.92576C19.129 8.87054 19.1661 8.81751 19.2065 8.76698C20.1926 7.53334 21.5377 6.63671 23.0558 6.20117C24.5739 5.76563 26.1898 5.81272 27.6799 6.33593C29.1701 6.85913 30.4608 7.83258 31.3733 9.12155C32.2859 10.4105 32.7753 11.9513 32.7737 13.5306V19.281C32.7713 21.3009 31.9682 23.2374 30.5403 24.6661C29.1124 26.0949 27.1764 26.8992 25.1565 26.9028Z" fill="white"/>
</g>
<defs>
<clipPath id="clip0_3749_4089">
<rect width="151" height="32.8077" fill="white"/>
</clipPath>
</defs>
</svg>
