<svg width="160" height="36" viewBox="0 0 160 36" fill="none" xmlns="http://www.w3.org/2000/svg">
<g clip-path="url(#clip0_3749_4012)">
<path fill-rule="evenodd" clip-rule="evenodd" d="M19.0596 0.590407C18.5491 0.540169 18.032 0.485576 17.5109 0.430554C12.0201 -0.149189 6.07808 -0.776564 2.54451 3.14055C-1.43581 7.71449 0.116 14.4863 1.44324 20.2781L1.44735 20.296C2.77549 26.2657 4.33461 33.0467 9.9359 35.365C14.4115 37.2488 18.9272 34.5838 23.2491 32.0332C24.113 31.5233 24.9692 31.018 25.8158 30.5545C26.1094 30.3904 26.4049 30.2266 26.7012 30.0623C31.0092 27.6731 35.4907 25.1877 36.7874 20.4699C38.1733 15.2537 36.1522 9.63181 32.5143 5.57477C29.1651 1.74956 24.0835 0.880195 19.0596 0.590407ZM18.6669 11.1137L17.7311 8.24081V8.1249L17.2114 6.67596C16.8649 5.69067 16.2875 5.22701 15.2481 5.16905H15.1903C14.5715 5.27474 14.0039 5.57994 13.5735 6.03842L12.1298 7.48736L7.97217 11.4285C7.35336 12.0496 7.0569 12.6707 7.28842 13.4568H7.27929L10.513 23.3097C10.604 23.6116 10.7554 23.8917 10.9579 24.1329C11.1605 24.3741 11.4099 24.5712 11.691 24.7123C11.9721 24.8533 12.2789 24.9353 12.5927 24.9533C12.9064 24.9712 13.2205 24.9247 13.5158 24.8166L21.3691 22.2085C23.5057 21.455 25.8155 21.9187 27.5479 23.3676C27.9521 23.6574 28.5295 23.2517 28.3563 22.788L24.8338 11.9499C24.7167 11.6033 24.5327 11.2833 24.2921 11.0082C24.0516 10.7332 23.7593 10.5084 23.4321 10.3469C23.1049 10.1854 22.7491 10.0903 22.3852 10.067C22.0213 10.0437 21.6564 10.0927 21.3114 10.2112L18.6669 11.1137ZM15.4415 18.8039C15.5065 19.0321 15.4785 19.2769 15.3636 19.4844H15.3059C15.191 19.6843 15.0018 19.8301 14.7798 19.8899C14.5578 19.9497 14.3212 19.9185 14.1221 19.8032C13.923 19.6879 13.7777 19.498 13.7181 19.2752C13.6586 19.0523 13.6896 18.8149 13.8045 18.6151C13.9194 18.4076 14.1117 18.2543 14.3391 18.1891C14.5665 18.1239 14.8104 18.152 15.0172 18.2673C15.2239 18.3826 15.3766 18.5756 15.4415 18.8039ZM18.7637 18.2357C18.7489 18.349 18.712 18.4582 18.6551 18.5571C18.5402 18.7569 18.351 18.9028 18.129 18.9626C17.907 19.0224 17.6704 18.9912 17.4713 18.8759C17.2722 18.7606 17.1269 18.5707 17.0674 18.3478C17.0078 18.125 17.0389 17.8876 17.1537 17.6878C17.2106 17.5888 17.2863 17.5021 17.3766 17.4325C17.4669 17.3629 17.5699 17.3119 17.6798 17.2823C17.7898 17.2527 17.9044 17.2451 18.0173 17.26C18.1301 17.2749 18.2389 17.3119 18.3375 17.369C18.4361 17.4261 18.5225 17.5021 18.5918 17.5927C18.6611 17.6833 18.712 17.7867 18.7415 17.897C18.771 18.0074 18.7785 18.1224 18.7637 18.2357ZM22.1686 17.2329C22.1392 17.3566 22.0831 17.4723 22.0043 17.5718C21.8779 17.7316 21.6996 17.8416 21.5005 17.8827C21.3015 17.9238 21.0944 17.8933 20.9154 17.7966C20.7365 17.6999 20.5971 17.5431 20.5217 17.3537C20.4463 17.1643 20.4397 16.9543 20.503 16.7604C20.5424 16.6396 20.6078 16.5289 20.6945 16.4362C20.7812 16.3435 20.8871 16.271 21.0047 16.2238C21.1223 16.1766 21.2489 16.1559 21.3753 16.1632C21.5018 16.1704 21.6252 16.2054 21.7367 16.2657C21.8483 16.326 21.9453 16.4101 22.0209 16.5121C22.0966 16.6141 22.149 16.7315 22.1745 16.856C22.2 16.9806 22.198 17.1092 22.1686 17.2329Z" fill="white"/>
<path d="M18.962 10.5026L18.0341 7.9823V7.9155C18.0341 7.88974 18.0291 7.86423 18.0194 7.84036L17.5008 6.5611C17.5007 6.56089 17.5006 6.56068 17.5005 6.56047C17.3172 6.09938 17.0653 5.74271 16.707 5.49686C16.3498 5.25175 15.9063 5.13024 15.3635 5.10347L15.3636 5.10322H15.3537H15.296C15.286 5.10322 15.276 5.10397 15.2661 5.10547C14.6113 5.20442 14.007 5.49031 13.5459 5.92392L12.1081 7.20064L7.95709 10.6819L7.95704 10.6818L7.95281 10.6856C7.59535 11.003 7.32007 11.3389 7.19598 11.7209C7.06903 12.1117 7.10861 12.5243 7.32937 12.9723C7.33486 12.9835 7.34138 12.9941 7.34883 13.004L7.4642 13.1577C7.46988 13.1653 7.4761 13.1724 7.48279 13.1791C8.00638 13.7022 8.71589 13.8039 9.4416 13.6965C9.80203 13.6431 10.1446 13.5502 10.4713 13.4535C10.5556 13.4286 10.6383 13.4035 10.7199 13.3788C10.9591 13.3065 11.189 13.2369 11.4206 13.1808L11.4207 13.1811L11.4323 13.1776L18.9311 10.8726C19.0257 10.8435 19.0849 10.7496 19.0702 10.6517C19.0602 10.5855 19.0185 10.531 18.962 10.5026Z" stroke="white" stroke-width="0.4" stroke-linejoin="round"/>
<path d="M115.537 12.3945L114.667 12.0469C113.798 11.7574 113.044 11.4678 112.29 11.294C111.247 11.1203 110.551 11.1782 109.855 11.5836C109.16 12.0469 108.754 12.742 108.522 13.7845C108.232 14.7691 108.232 15.9274 108.174 17.1437C108.174 18.36 108.116 19.5184 108.29 20.6188C108.464 21.6034 108.812 22.3563 109.45 22.8197C110.029 23.283 110.841 23.3989 111.769 23.283C112.522 23.1672 113.218 22.9934 113.971 22.7618L115.131 22.4142L115.537 22.3563C116.464 22.1247 117.276 21.9509 117.971 21.6034C118.688 21.343 119.299 20.8546 119.711 20.2134C120.58 18.7654 120.464 16.8541 119.595 15.1745C118.899 13.7845 117.45 13.0316 115.537 12.3945Z" stroke="white" stroke-width="2.04545"/>
<path d="M132.058 15.6956C131.657 15.134 131.126 14.6776 130.511 14.365C129.895 14.0524 129.213 13.8929 128.522 13.9001C125.74 13.9001 123.711 16.0431 123.711 19.0548C123.711 22.0086 125.74 24.2095 128.522 24.2095C129.971 24.2095 131.247 23.5145 132.058 22.4141V22.7616C132.113 22.9891 132.243 23.1916 132.427 23.3365C132.611 23.4813 132.839 23.5601 133.073 23.5601C133.307 23.5601 133.535 23.4813 133.719 23.3365C133.903 23.1916 134.033 22.9891 134.087 22.7616V15.2902C134.033 15.0626 133.903 14.8601 133.719 14.7153C133.535 14.5704 133.307 14.4917 133.073 14.4917C132.839 14.4917 132.611 14.5704 132.427 14.7153C132.243 14.8601 132.113 15.0626 132.058 15.2902V15.6956ZM128.928 22.4141C127.073 22.4141 125.74 20.9661 125.74 19.0548C125.74 17.0856 127.073 15.6956 128.928 15.6956C130.725 15.6956 132.058 17.0856 132.058 19.0548C132.058 20.9661 130.725 22.4141 128.928 22.4141ZM138.841 22.5299C139.249 23.0621 139.776 23.4913 140.38 23.783C140.984 24.0747 141.648 24.2208 142.319 24.2095C145.102 24.2095 147.131 22.0086 147.131 18.9969C147.131 16.101 145.102 13.9001 142.319 13.9001C141.644 13.8956 140.976 14.0506 140.372 14.3525C139.767 14.6545 139.243 15.0948 138.841 15.6377V15.2902C138.841 15.0214 138.734 14.7636 138.544 14.5735C138.354 14.3834 138.096 14.2766 137.827 14.2766C137.557 14.2766 137.299 14.3834 137.109 14.5735C136.919 14.7636 136.812 15.0214 136.812 15.2902V27.1054C136.867 27.333 136.997 27.5355 137.181 27.6803C137.365 27.8252 137.592 27.9039 137.827 27.9039C138.061 27.9039 138.288 27.8252 138.472 27.6803C138.656 27.5355 138.786 27.333 138.841 27.1054V22.472V22.5299ZM145.102 19.0548C145.102 20.9082 143.769 22.2982 141.914 22.2982C140.116 22.2982 138.783 20.9082 138.783 19.0548C138.783 17.1435 140.116 15.8114 141.914 15.8114C143.711 15.8114 145.102 17.1435 145.102 19.0548ZM151.421 22.5299C151.829 23.0621 152.356 23.4913 152.96 23.783C153.564 24.0747 154.228 24.2208 154.899 24.2095C157.624 24.2095 159.653 22.0086 159.653 18.9969C159.653 16.101 157.624 13.9001 154.841 13.9001C154.165 13.8956 153.498 14.0506 152.894 14.3525C152.289 14.6545 151.765 15.0948 151.363 15.6377V15.2902C151.363 15.1609 151.337 15.0328 151.288 14.9134C151.238 14.7939 151.166 14.6854 151.074 14.5939C150.983 14.5025 150.874 14.43 150.754 14.3805C150.635 14.331 150.507 14.3056 150.377 14.3056C150.248 14.3056 150.12 14.331 150 14.3805C149.881 14.43 149.772 14.5025 149.68 14.5939C149.589 14.6854 149.516 14.7939 149.467 14.9134C149.417 15.0328 149.392 15.1609 149.392 15.2902V27.1054C149.447 27.333 149.576 27.5355 149.761 27.6803C149.945 27.8252 150.172 27.9039 150.406 27.9039C150.641 27.9039 150.868 27.8252 151.052 27.6803C151.236 27.5355 151.366 27.333 151.421 27.1054V22.472V22.5299ZM157.624 19.0548C157.624 20.9082 156.29 22.2982 154.493 22.2982C152.638 22.2982 151.363 20.9082 151.363 19.0548C151.363 17.1435 152.638 15.8114 154.493 15.8114C156.232 15.8114 157.624 17.1435 157.624 19.0548ZM56.4642 24.557C59.6526 24.557 61.6816 22.7037 61.6816 20.2711C61.6816 15.2323 53.2179 17.549 53.2179 14.4793C53.2179 13.321 54.3773 12.4522 56.1164 12.4522C57.6237 12.4522 58.7251 13.1472 59.1889 14.1897C59.3628 14.6531 59.7686 15.1164 60.2903 15.1164C60.87 15.1164 61.3918 14.5952 61.2179 13.9581C60.6381 11.9889 58.7251 10.6567 56.1164 10.6567C53.1019 10.6567 51.0729 12.3943 51.0729 14.7689C51.0729 19.8078 59.4787 17.4331 59.4787 20.5607C59.4787 21.7191 58.3773 22.7037 56.5802 22.7037C54.899 22.7037 53.6816 22.0086 53.1599 20.8503C52.986 20.329 52.5222 19.8657 51.9425 19.8657C51.3628 19.8657 50.899 20.2711 51.015 20.8503C51.5367 22.9932 53.6816 24.4991 56.4642 24.4991V24.557ZM67.7106 24.4412C68.87 24.4412 70.0874 23.862 70.7251 22.8774V23.1091C70.7251 23.3702 70.8289 23.6207 71.0137 23.8053C71.1986 23.99 71.4492 24.0937 71.7106 24.0937C71.972 24.0937 72.2226 23.99 72.4075 23.8053C72.5923 23.6207 72.6961 23.3702 72.6961 23.1091V15.7535C72.6961 15.4924 72.5923 15.2419 72.4075 15.0573C72.2226 14.8726 71.972 14.7689 71.7106 14.7689C71.4492 14.7689 71.1986 14.8726 71.0137 15.0573C70.8289 15.2419 70.7251 15.4924 70.7251 15.7535V20.0974C70.7251 21.6032 69.5657 22.7037 68.1744 22.7037C66.7251 22.7037 65.9135 21.6611 65.9135 20.329V15.7535C65.9135 15.4924 65.8097 15.2419 65.6249 15.0573C65.44 14.8726 65.1894 14.7689 64.928 14.7689C64.6666 14.7689 64.416 14.8726 64.2311 15.0573C64.0463 15.2419 63.9425 15.4924 63.9425 15.7535V20.4449C63.9425 22.7616 65.4497 24.4991 67.7106 24.4991V24.4412ZM77.3338 22.8195C77.7298 23.332 78.2397 23.7454 78.8233 24.0269C79.4069 24.3084 80.0481 24.4502 80.6961 24.4412C83.4208 24.4412 85.3918 22.3562 85.3918 19.4023C85.3918 16.5064 83.4208 14.4214 80.7541 14.4214C79.3048 14.4214 78.0874 15.0006 77.2758 16.0431V15.7535C77.2228 15.5401 77.0999 15.3505 76.9265 15.215C76.7532 15.0796 76.5394 15.0059 76.3193 15.0059C76.0992 15.0059 75.8855 15.0796 75.7121 15.215C75.5387 15.3505 75.4158 15.5401 75.3628 15.7535V27.3371C75.3628 27.5982 75.4666 27.8487 75.6514 28.0333C75.8363 28.218 76.0869 28.3217 76.3483 28.3217C76.6097 28.3217 76.8603 28.218 77.0451 28.0333C77.23 27.8487 77.3338 27.5982 77.3338 27.3371V22.8195ZM83.4207 19.4023C83.4207 21.2557 82.0874 22.5878 80.3483 22.5878C78.6092 22.5878 77.2758 21.2557 77.2758 19.4023C77.2758 17.6069 78.5512 16.2748 80.3483 16.2748C82.0874 16.2748 83.4207 17.549 83.4207 19.4023ZM92.1744 22.7616C90.6092 22.7616 89.4497 21.6611 89.2179 20.0394H96.3483C96.7541 20.0394 97.1019 19.7498 97.1019 19.3444C97.1019 16.4485 95.0729 14.4214 92.1744 14.4214C89.2758 14.4214 87.1889 16.4485 87.1889 19.2865C87.1889 22.2982 89.2758 24.4991 92.2323 24.4991C93.7976 24.4991 95.3628 23.7462 96.1744 22.7037C96.4642 22.2403 96.1744 21.6611 95.7106 21.5453C95.2468 21.3715 94.7831 21.5453 94.4352 21.8928C93.8555 22.472 93.0439 22.7616 92.1164 22.7616H92.1744ZM89.2179 18.5336C89.5077 17.0856 90.6092 16.0431 92.1164 16.0431C92.8197 16.0362 93.5016 16.285 94.0349 16.7432C94.5682 17.2014 94.9165 17.8378 95.015 18.5336H89.2179ZM103.769 14.4793C103.247 14.4779 102.735 14.617 102.286 14.8821C101.837 15.1471 101.468 15.5282 101.218 15.9852V15.7535C101.254 15.6084 101.256 15.4571 101.225 15.3109C101.194 15.1647 101.13 15.0276 101.038 14.9098C100.945 14.7921 100.828 14.6969 100.693 14.6314C100.559 14.5659 100.411 14.5319 100.261 14.5319C100.112 14.5319 99.9641 14.5659 99.8296 14.6314C99.6951 14.6969 99.5773 14.7921 99.4851 14.9098C99.3929 15.0276 99.3288 15.1647 99.2975 15.3109C99.2663 15.4571 99.2688 15.6084 99.3048 15.7535V23.0512C99.3048 23.32 99.4117 23.5778 99.6019 23.7679C99.7922 23.9579 100.05 24.0647 100.319 24.0647C100.588 24.0647 100.846 23.9579 101.037 23.7679C101.227 23.5778 101.334 23.32 101.334 23.0512V18.9969C101.334 17.3173 102.145 16.101 103.479 16.101H103.769C104.348 16.2169 104.928 15.8114 104.928 15.2323C104.928 14.8847 104.754 14.5952 104.406 14.5372L103.769 14.4214V14.4793Z" fill="white"/>
</g>
<defs>
<clipPath id="clip0_3749_4012">
<rect width="160" height="35.9091" fill="white"/>
</clipPath>
</defs>
</svg>
